<?xml version="1.0" encoding="UTF-8"?>
<!-- Created with Inkscape (http://www.inkscape.org/) -->
<svg width="250" height="130" version="1.1" viewBox="0 0 66.146 34.396" xmlns="http://www.w3.org/2000/svg">
 <rect x="2.3931e-16" width="66.146" height="34.396" rx="4.8566" ry="4.6661" fill="#f2f2f2" stroke-width=".21167"/>
 <g>
  <path d="m28.224 4.8286h2.3151v3.7042h-2.3151z" fill="#0a0"/>
  <path d="m35.606 4.8286h2.3151v3.7042h-2.3151z" fill="#0a0"/>
  <path d="m21.839 8.6481v-0.95062c0-0.52812 0.5627-0.95062 0.96462-0.95062h20.539c0.40193 0 0.96462 0.4225 0.96462 0.95062v17.81c0 0.55844-0.62486 0.95062-1.0499 0.95062h-20.454c-0.40192 0-0.96462-0.4225-0.96462-0.95062v-0.95062z" fill="#fff" stroke="#37c837" stroke-width=".39687"/>
 </g>
 <path d="m27.139 14.002h2.7596l8.3e-5 2.5375h-2.7597z" fill="#d40000"/>
 <g fill="none" stroke="#afdde9" stroke-width=".26458px">
  <path d="m23.812 11.311h18.455"/>
  <path d="m23.812 13.957h18.455"/>
  <path d="m23.812 16.603h18.455"/>
  <path d="m23.812 19.248h18.455"/>
  <path d="m23.812 21.894h18.455"/>
 </g>
</svg>
