<?xml version="1.0" encoding="UTF-8"?>
<!-- Created with Inkscape (http://www.inkscape.org/) -->
<svg width="250" height="130" version="1.1" viewBox="0 0 66.146 34.396" xmlns="http://www.w3.org/2000/svg">
 <rect x="2.3931e-16" width="66.146" height="34.396" rx="4.8566" ry="4.6661" fill="#f2f2f2" stroke-width=".21167"/>
 <g transform="matrix(1.6284 0 0 1.6284 19.286 3.2457)" stroke-width=".80001">
  <g stroke-linecap="round">
   <g transform="matrix(.91986 0 0 .92975 .35246 1.0586)">
    <path d="m5.1533 2.5003 7.7403-0.8049c0.79672-0.08285 0.67579 2.0053 0.73419 2.8043l0.61016 8.3479c0.0584 0.79902-0.64524 1.4243-1.446 1.446l-7.86 0.21343c-0.80081 0.02174-0.85429-0.9088-0.86876-1.7098l-0.15254-8.4485c-0.014462-0.80098 0.44594-1.7657 1.2427-1.8485z" color="#000000" fill="#fff" stroke-width=".51436" style="-inkscape-stroke:none;paint-order:markers stroke fill"/>
    <path d="m5.1439 2.2089c-0.83289-0.024347-2.3104 0.87144-1.7398 1.5451s0.044574 7.1069 0.19466 9.6498c0.047202 0.79975 0.97053 1.8714 1.7676 1.6285 2.6386-0.80415 5.2334-0.22692 7.23-0.3337 0.83206-0.0445 1.8188-0.79528 1.7676-1.7676l-0.52836-10.039c-0.051173-0.9723-0.97309-2.0187-1.7676-1.7676-2.1492 0.6794-4.8113 1.1463-6.9241 1.0845zm0.027809 0.42011 6.8963-0.86207c0.62372-0.077968 1.092 0.49729 1.125 1.125l0.52836 10.039c0.03304 0.62771-0.49776 1.084-1.125 1.125l-7.23 0.47275c-0.62724 0.04101-1.1104-0.49655-1.123-1.125l-0.19466-9.6498c-0.012677-0.62845 0.49932-1.047 1.123-1.125z" color="#000000" fill="#8dd35f" stroke-width=".80001" style="-inkscape-stroke:none;paint-order:markers stroke fill"/>
   </g>
   <ellipse cx="8.3956" cy="8.3254" rx="3.7418" ry="3.2974" fill="none" stroke="#ececec" stroke-width=".21167" style="paint-order:markers stroke fill"/>
   <ellipse cx="8.3722" cy="8.419" rx="2.4523" ry="2.2419" fill="#f9f9f9" stroke="#ececec" stroke-width=".21681" style="paint-order:markers stroke fill"/>
  </g>
  <g fill="#ee9540" stroke-width=".80001">
   <path d="m7.9375 12.41-0.50982-4.4361s0.48162-0.14006 0.5919-0.30923c0.062927-0.096532-0.004911-0.33411-0.004911-0.33411-0.10545-0.60924-0.5563-2.2679-0.77676-2.8581l-0.068686 0.0057 0.36695 2.3607-0.27381 0.022194-0.57255-2.344-0.068675 0.00556 0.26417 2.3689-0.2761 0.022386-0.5389-2.3467-0.068674 0.00555 0.20081 2.361-0.29693 0.028138-0.40755-2.3484-0.068678 0.00555 0.062752 2.9033s0.028932 0.25005 0.12809 0.33677c0.16312 0.14271 0.66334 0.21042 0.66334 0.21042l0.099361 0.57257z"/>
   <path d="m11.238 8.2665-0.09687 3.7756-0.93818-3.6848-1.3388 0.62921 0.78595-4.4445s0.22234-0.42302 0.37638-0.40212c0.16126 0.021875 0.39098 0.37539 0.39098 0.37539l0.82151 3.681z"/>
   <rect transform="rotate(-4)" x="4.7136" y="13.958" width="6.0804" height=".52917" ry=".14056" style="paint-order:markers stroke fill"/>
   <rect transform="rotate(-4)" x="5.6366" y="13.113" width="4.3264" height=".52917" ry=".1571" style="paint-order:markers stroke fill"/>
  </g>
 </g>
</svg>
