<?xml version="1.0" encoding="UTF-8"?>
<!-- Created with Inkscape (http://www.inkscape.org/) -->
<svg width="250" height="130" version="1.1" viewBox="0 0 66.146 34.396" xml:space="preserve" xmlns="http://www.w3.org/2000/svg"><rect x="2.3931e-16" width="66.146" height="34.396" rx="4.8566" ry="4.6661" fill="#f2f2f2" stroke-width=".21167"/><g transform="matrix(.52788 0 0 .52788 -17.13 14.956)" stroke-width="1.8944"><path d="m79.838 15.412v8.7312h2.3812v-8.7312z" fill="#43449c"/><path d="m83.622 24.143 3.4264-8.7312h2.1167l3.5057 8.7312h-2.5135l-0.68792-1.8521h-2.9104l-0.50271 1.8521z" fill="#43449c"/><path d="m88.04 18.521-0.52917 1.6536h1.1245z" fill="#fff"/><g fill="#43449c"><path d="m92.141 15.412h6.813v1.9844h-2.4474v6.7469h-2.1828v-6.7469h-2.1828z"/><path d="m100.55 15.412v8.7312h2.3812v-8.7312z"/><path d="m109.86 15.544s-1.91-0.56406-2.831-0.33073c-0.96654 0.24486-1.8657 0.79933-2.249 1.7198-1.1522 2.767 2.577 4.0702 2.8608 4.2003 0.77258 0.3541 0.24684 1.3329-0.47956 1.2402-0.80634-0.10286-2.3648-0.47956-2.3648-0.47956v2.1167s1.6837 0.37371 2.5633 0.26458c0.8375-0.1039 1.7594-0.28932 2.3812-0.8599 0.4652-0.42688 0.64832-1.2706 0.62839-1.9017-0.0883-2.7927-3.4307-2.6135-3.5057-3.5223-0.0312-0.37777 0.23558-0.92125 0.82683-0.94258 0.51967-0.01875 2.1696 0.5457 2.1696 0.5457z"/></g></g><g transform="matrix(.52788 0 0 .52788 -17.275 15.026)" stroke-width="1.8944"><g fill="#c0d941"><path d="m95.259 11.272 0.15591-1.5903 0.26504-0.82631-0.09354-0.93544-0.15591-0.43654 0.35859-0.54568 0.71717-1.1225 1.2473-0.99781 1.5435-0.76395 1.3564-0.48331 1.0134-0.046772 0.0468 0.6704 0.20268 0.77954 0.91985 0.6704 0.56127 0.54568 0.15591 0.85749 0.078 0.6704 0.20268 0.4989 0.0312 0.88867-0.21827 0.73276-0.82631 1.0602-2.666 0.76394-3.1337 0.1715z"/><path d="m82.194 5.1138 4.303 4.2407 1.9956-1.2473 2.6192-1.1225 1.2473-2.744-2.4244-2.3074-0.36638-1.4811-0.79513-2.6192-0.03118-1.2862 0.24945-1.3486 1.1225-1.1849 1.6214 0.24945 1.0602 1.1849-0.18709 1.6838 0.31181 0.68599 0.24945 0.12473 0.56127-0.18709 0.10914-0.23386-0.22606-0.93544-0.07016-0.57686 0.24945-0.62363 0.18709-0.24945 0.56126-0.12473 0.4989 0.12473 0.68599 0.43654 0.99781 0.81072 0.81072 0.37418 1.372 0.43654 0.31181-0.43654 0.56127-0.68599-0.15813-0.67118-0.63465-0.5978-0.70394-0.41482h-1.0602l-0.28393-0.4534 0.22156-2.1035-0.56127-1.1849 1.3096-2.058-2.4322-3.5547-1.6838-0.87308-6.0804 2.6504-0.03118 2.0892-0.10914 1.0758 0.10914 0.98222 0.9978 1.2473 0.43654 0.68599-0.43654 1.4967-0.87308 1.9332-0.18709 0.81072-0.18709 0.81072 0.74836 1.0602-0.56127 1.4967-3.3676-0.12473-0.62363 1.3096c-0.29805 0.43077-0.23662 1.0103-0.24945 1.5591z"/><path d="m101.58-13.758-1.1024 3.5719 0.39687 0.74965 0.94809 0.79375 0.22049 0.88194 0.0882 1.1906 0.50711 0.41892 0.94809 0.19844 0.88195-0.48507 0.50712-0.26458 1.0142 0.33073 0.99219-0.022048 0.92604-0.50712-1.367-2.6899-2.7561-2.7561z"/></g><g><path d="m97.567 10.804s-4.377 1.4074-6.0804 0.8419c-3.1047-1.0308-5.9181-3.2568-8.3254-5.9868-1.4609-1.6567-2.0746-4.06-2.1515-6.2675-0.08203-2.3546 1.1846-4.7248 2.2451-6.8287 1.1036-2.1895 4.1627-5.753 4.1627-5.753s-3.8249 2.9104-5.0514 5.0046c-1.3377 2.2841-2.2492 5.0255-2.1515 7.6706 0.09005 2.4389 0.91111 5.2324 2.5257 7.0626 1.1784 1.3358 2.9528 2.8718 4.5568 4.1068 1.604 1.235 2.8506 1.9352 4.4702 2.2542 2.3116 0.45531 5.8111-2.1217 5.7997-2.1047z"/><path d="m97.631-14.85s1.4152 0.1355 2.871 0.82337c1.4559 0.68787 2.9524 1.9281 3.9089 2.8146 1.7501 1.6221 3.0445 3.8122 3.7703 6.0854 0.635 1.9889 0.69669 4.1846 0.39687 6.2508-0.28499 1.964-1.0679 3.8652-2.0505 5.5893-0.88069 1.5453-3.3734 4.1341-3.3734 4.1341s2.4034-0.62989 3.3404-1.3891c2.9604-2.3987 3.3116-7.4537 3.5388-8.0367 0.0664-0.17031 0.11588-4.6426-0.85989-6.8461-1.1369-2.5673-2.6298-4.8068-4.5641-6.6477-0.92395-0.87933-2.5764-1.8845-4.0614-2.3911-1.485-0.50659-2.917-0.38702-2.917-0.38702z"/><path d="m88.354-13.428-0.66146 0.77721 0.19844 2.1001 1.571 1.1079v0.5457h-0.42995l-1.5214-1.0914-0.04961-2.8773 0.42995-0.52917z"/><path d="m94.043-15.715c0.07502-0.38833 0.80188-0.16098 1.1849-0.06236 0.53347 0.13736 1.0061 0.49126 1.4032 0.87308 0.53405 0.51352 0.89078 1.1902 1.2473 1.8397 0.2016 0.3673 0.41399 0.74342 0.4989 1.1537 0.07162 0.34606 0.13007 0.73159 0 1.0602-0.25711 0.64952-1.2116 0.86579-1.4343 1.5279-0.06331 0.18821 0.0067 0.40184 0.06236 0.59245 0.03911 0.13385 0.15505 0.23846 0.18709 0.37418 0.18388 0.77891-0.4955 1.7725 0 2.401 0.33089 0.4197 1.1175 0.073093 1.5591 0.37418 0.55508 0.37848 1.2034 0.98263 1.1537 1.6526-0.03918 0.52792-0.57687 1.029-1.0914 1.1537-1.0063 0.24389-2.0156-0.54503-2.9311-1.029-0.43372-0.2293-0.69429-0.87403-1.1849-0.87308-0.45317 8.811e-4 -0.94817 0.38076-1.0914 0.81072-0.12676 0.38066 0.38667 0.75489 0.343 1.1537-0.04659 0.4255-0.19894 1.0691-0.62363 1.1225-0.52522 0.066138-0.946-0.64469-1.0914-1.1537-0.14273-0.49982 0.47002-1.0328 0.31181-1.5279-0.19473-0.60943-0.77985-1.1654-1.4032-1.3096-0.62463-0.14455-1.3833 0.111-1.8397 0.56127-0.38845 0.3832-0.45902 1.0149-0.4989 1.5591-0.07008 0.95604 0.11299 1.947 0.46772 2.8375 0.15788 0.39637 0.60189 0.64938 0.71717 1.0602 0.11808 0.42078-0.2304 0.90618-0.06236 1.3096 0.27447 0.65898 1.0727 0.94274 1.5903 1.4343 0.30908 0.29356 0.86033 0.48026 0.90426 0.90426 0.12617 1.2177-0.81872 2.3488-1.2784 3.3988-0.15379 0.35125-0.8419 1.0914-1.2161 0.90426-0.37418-0.18709-1.1664 0.27617-1.3096-0.37418-0.17899-0.81268 1.6241-0.17604 2.0268-0.90426 1.1603-2.0982 1.5471-1.8274 1.2473-2.9934-0.17158-0.66727-1.1085-0.9418-1.5903-1.4343-0.33668-0.34422-0.63009-0.75836-0.77953-1.2161-0.15837-0.48505 0.006793-1.0276-0.09355-1.5279-0.14932-0.74449-0.62867-1.4017-0.74836-2.1515-0.09012-0.56461-0.08297-1.1547 0.03118-1.715 0.11637-0.57115 0.25156-1.2005 0.65481-1.6214 0.26065-0.27206 0.65585-0.41557 1.029-0.46772 0.41636-0.058193 0.86858 0.00449 1.2473 0.18709 0.37096 0.17887 0.66043 0.51 0.90426 0.8419 0.15689 0.21356 0.30352 0.45514 0.343 0.71717 0.04226 0.28053-0.13664 0.55845-0.12473 0.8419 0.01524 0.36272-0.06254 0.87454 0.24945 1.0602 0.20369 0.12119 0.56381 0.016005 0.68599-0.18709 0.21969-0.36516-0.37567-0.83184-0.28063-1.2473 0.10064-0.4399 0.44252-0.85008 0.8419-1.0602 0.2674-0.14066 0.62131-0.16831 0.90426-0.062363 0.39921 0.14948 0.54872 0.66911 0.90426 0.90426 0.57954 0.3833 1.2391 0.74903 1.9332 0.77954 0.49929 0.021944 1.3161-0.27956 1.4032-0.37418 0.52988-0.57593-0.44867-2.11-2.0892-1.8397-0.84133 0.13864-0.12314-1.7211-0.40536-2.5257-0.11862-0.3382-0.43872-0.93188-0.53008-1.2784-0.11924-0.45227 0.24308-0.6215 0.40536-1.0602 0.26597-0.71899 1.3502-1.0246 1.0914-1.7462-0.35263-0.98299-1.0124-1.9441-1.6838-2.6504-0.54464-0.57299-2.3015-0.22162-2.1515-0.99781z"/><path d="m83.254 3.8041c-0.3647-0.017544-0.06-0.95029-0.12473-1.3096-0.03442-0.1911 0.04177-0.46173 0.06236-0.65481 0.0498-0.46692 0.30034-0.7237 0.59245-1.0914 0.24756-0.31159 0.38219-0.63265 0.77954-0.65481 0.23891-0.013323 0.70726 0.02868 0.56127 0.21827-0.39518 0.51321-1.2978 1.0176-1.6214 1.7462-0.2102 0.47323 0.26777 1.771-0.24945 1.7462z"/><path d="m93.451 11.568 1.0602-0.37418c0.30698-0.10835 0.31909-0.57477 0.40536-0.88867 0.0795-0.28926 0.13456-0.62119 0.23386-0.90426 0.09083-0.25894 0.20225-0.48954 0.20268-0.76395 3.94e-4 -0.25118-0.13391-0.47169-0.18709-0.71717-0.05281-0.2438-0.03139-0.4757 0.03118-0.71717 0.05369-0.20718 0.19918-0.37322 0.26504-0.57686 0.13528-0.41829-0.03608-0.82059 0.15591-1.2161 0.21826-0.44959 0.55926-0.82783 0.95103-1.1381 0.80495-0.63753 1.7554-1.0663 2.6192-1.6214 0.37833-0.24311 0.68061-0.66505 1.1225-0.74835 0.33457-0.063069 0.67677 0.10489 0.9978 0.21827 0.30681 0.10836 0.73256 0.14307 0.87308 0.43654 0.10565 0.22065-0.18012 0.47373-0.1559 0.71717 0.018 0.18063 0.0978 0.36312 0.21827 0.4989 0.13605 0.15334 0.35978 0.1977 0.53008 0.31181 0.3143 0.21061 0.66722 0.39112 0.90426 0.68599 0.27972 0.34796 0.39924 0.80006 0.56127 1.2161 0.20995 0.53907 0.34461 1.1046 0.53008 1.6526 0.0438 0.12946 0.12749 0.24994 0.13764 0.38624 0.0284 0.38091 0.0117 0.82112-0.22048 1.1245l-0.74828 0.9779c-0.39969 0.52233-0.70069 0.6726-0.71412 0.62516-0.0683-0.24137 0.04-0.36107 0.18357-0.56678 0.17081-0.24474 0.36811-0.46988 0.55122-0.70556 0.12537-0.16136 0.27957-0.30429 0.37483-0.48507 0.1116-0.21179 0.18328-0.44702 0.22048-0.68351 0.0365-0.23233 0.0326-0.47264 0-0.70555-0.0371-0.26494-0.13563-0.51799-0.22048-0.7717-0.0974-0.29125-0.20851-0.57816-0.33073-0.8599-0.10727-0.24727-0.18776-0.51449-0.35278-0.7276-0.11811-0.15253-0.35278-0.35278-0.44097-0.37483-0.0882-0.022048-0.60936-0.34003-0.83785-0.59531-0.10093-0.11276-0.14583-0.26524-0.22049-0.39688-0.0796-0.14035-0.19551-0.26457-0.24253-0.41892-0.0644-0.21139 4.4e-4 -0.44502-0.0441-0.66146-0.0267-0.12978-0.0349-0.28498-0.13229-0.37483-0.18999-0.17528-0.49429-0.15836-0.74965-0.19844-0.13815-0.021682-0.27989-0.03696-0.41893-0.022049-0.24996 0.026806-0.50524 0.081153-0.7276 0.19844-0.17063 0.090003-0.28864 0.25646-0.44097 0.37483-1.124 0.87334-2.8131 1.2139-3.4837 2.4694-0.12816 0.23995-0.01837 0.54379-0.02204 0.8158-0.0037 0.27191 0.11947 0.57152 0 0.8158-0.07363 0.15055-0.31618 0.16179-0.39688 0.30868-0.07465 0.13588-0.06164 0.30898-0.0441 0.46302 0.02104 0.18474 0.14413 0.34606 0.17639 0.52917 0.0472 0.26791 0.06337 0.54692 0.02204 0.8158-0.03425 0.22283-0.16699 0.4204-0.22048 0.63941-0.0476 0.19487-0.06492 0.39606-0.0882 0.59531-0.02996 0.25643-0.01017 0.51967-0.06615 0.7717-0.02558 0.11514-5e-3 0.31612-0.12187 0.3322z"/><path d="m101.45-13.802c-0.40886 0.07714-0.34247 0.62601-0.5561 0.98306-0.22277 0.37232-0.29432 0.32359-0.38618 0.74763-0.1588 0.73297-0.49415 1.9102-0.12099 2.5608 0.24149 0.421 0.82252 0.49056 1.0632 0.91202 0.2844 0.49796 0.10332 1.0441 0.26237 1.5951 0.1437 0.65555 0.27264 0.97244 0.94986 1.1191 0.39094 0.048455 1.0703 0.19407 1.4336 0.041881 0.23726-0.099379 0.3782-0.36831 0.61736-0.46302 0.18563-0.073517 0.40559-0.12834 0.59532-0.066146 0.0854 0.027979 0.1216 0.13569 0.19825 0.18253 0.17958 0.10975 0.38402 0.1891 0.59244 0.21827 0.20645 0.028897 0.41989-0.00267 0.62363-0.046772 0.3246-0.070256 0.63713-0.19704 0.93545-0.343 0.13212-0.06464 0.34403-0.089901 0.37417-0.23386 0.0774-0.36965-0.2708-0.85243-0.63922-0.93544-0.0704-0.01587-0.14395 0.051239-0.18708 0.10914-0.10542 0.14151-0.0308 0.36512-0.12473 0.51449-0.0786 0.12505-0.20223 0.23584-0.343 0.28063-0.21347 0.067917-0.44916-0.011677-0.6704-0.046772-0.19046-0.030213-0.37691-0.083722-0.56126-0.14032-0.2169-0.066584-0.4129-0.2178-0.63922-0.23386-0.17488-0.012411-0.35656 0.03304-0.5145 0.10913-0.20621 0.099352-0.32814 0.32878-0.53008 0.43654-0.1436 0.076632-0.30498 0.13736-0.46772 0.14032-0.24702 0.00448-0.48859-0.093336-0.71717-0.18709-0.14433-0.059196-0.34126-0.091644-0.40536-0.23386-0.12857-0.28526 0.17599-0.60715 0.18709-0.91985 0.0128-0.3614-0.19853-0.76461-0.38285-1.0758-0.17056-0.28799-0.29528-0.39868-0.56819-0.59245-0.14928-0.10599-0.34107-0.16628-0.45213-0.31181-0.0668-0.087541-0.10603-0.20174-0.10913-0.31181-0.0101-0.35678 0.21407-0.68164 0.29622-1.029 0.1241-0.52473 0.24664-1.0533 0.29622-1.5903 0.0139-0.15007-0.0525-0.31086 0-0.45213 0.0693-0.18652 0.41791-0.25515 0.38977-0.45213-0.0247-0.17295-0.268-0.31766-0.43967-0.28527z"/></g><path d="m81.134-5.8621-2.1203-0.12473c-0.80871-0.047571-2.3804 0.3405-1.8085 1.6838 0.29371 0.68988 1.0175 1.1147 1.6214 1.5591 0.76438 0.56239 1.7081 0.91552 2.5827 1.2838 0.66062 0.27817 2.2985 0.82333 1.7824 0.32597l-0.31149-0.30014 0.45513-0.025183c0.83021-0.045935-4.1053-1.2635-5.07-2.5941-0.20123-0.27757-0.39601-0.68787-0.24945-0.99781 0.18683-0.39509 0.74812-0.57633 1.1849-0.56127l1.8085 0.062363z" fill="#00a957"/><path d="m84.081-1.1537 5.2229-0.8419-1.1537 1.7618 13.657 2.5881s6.321 1.2288 9.4324 0.71717c0.44576-0.073305 0.89611-0.2459 1.2473-0.53008 0.28131-0.22766 0.52672-0.54 0.62363-0.88867 0.06-0.21583-0.0468-0.6704-0.0468-0.6704l-0.42095 0.40536-0.078-1.2628 1.107 0.343-0.45214 0.40536s0.1609 0.46031 0.10914 0.68599c-0.0935 0.4075-0.34122 0.79845-0.64701 1.0836-0.38526 0.35921-0.91468 0.63194-1.4266 0.75615-3.0665 0.7441-9.448-0.59245-9.448-0.59245l-13.907-2.5101 0.04677 1.9644z" fill="#00a957"/><path d="m80.61 1.1906s-2.6537 0.44217-2.5576 1.4111c0.12019 1.212 2.273 0.96929 3.4837 1.1024 3.6814 0.40484 11.068-0.97014 11.068-0.97014l8.9958-2.1608-1.4993-1.808 5.424 0.52917s3.7463-1.1839 5.2917-2.3372c0.61844-0.46152 1.5756-0.996 1.4993-1.7639-0.0703-0.70817-1.0188-1.0492-1.6757-1.3229-0.56042-0.23353-1.808-0.22049-1.808-0.22049l-0.0882-0.066146s0.56006-0.087441 0.84261-0.095237c0.42522-0.011732 0.90926-0.00602 1.1969 0.10626 0.7471 0.29165 1.8024 0.7567 1.8852 1.5544 0.0986 0.95034-0.69316 1.5403-1.4552 2.1167-1.5328 1.1592-5.6444 2.249-5.6444 2.249l-3.7483 3.8365 0.0441-2.249-10.231 2.6017s-6.7884 1.1403-10.142 0.66146c-1.5329-0.21887-4.1551-0.053443-4.3656-1.5875-0.1819-1.3255 3.2632-2.3372 3.2632-2.3372z" fill="#43449c"/></g></svg>
