<?xml version="1.0" encoding="UTF-8"?>
<!-- Created with Inkscape (http://www.inkscape.org/) -->
<svg width="380" height="512" version="1.1" viewBox="0 0 100.54 135.47" xmlns="http://www.w3.org/2000/svg" xmlns:xlink="http://www.w3.org/1999/xlink">
 <defs>
  <radialGradient id="radialGradient20" cx="203.4" cy="96.97" r="5.2253" gradientTransform="matrix(1 0 0 .64453 0 34.47)" gradientUnits="userSpaceOnUse" xlink:href="#linearGradient19"/>
  <linearGradient id="linearGradient19">
   <stop stop-color="#130f10" offset="0"/>
   <stop stop-color="#201412" stop-opacity=".84706" offset=".56519"/>
   <stop stop-color="#2e1914" stop-opacity=".5" offset="1"/>
  </linearGradient>
  <radialGradient id="radialGradient23" cx="257.5" cy="96.97" r="5.2253" gradientTransform="matrix(1 0 0 .64453 0 34.47)" gradientUnits="userSpaceOnUse" xlink:href="#linearGradient19"/>
 </defs>
 <g transform="matrix(.7467 0 0 .74803 -121.57 -14.691)" stroke-width=".35402">
  <g>
   <path d="m174.23 102.3c0.0922-9.7383 0.53105-19.479 0.92372-29.212 2.371-17.387 12.392-41.232 48.264-48.841l4.9649-0.11546c30.426 3.1206 49.217 15.39 57.608 48.956l1.1626 29.212-3.1726 43.53-1.77 11.793c-2.4929 11.656-27.456 37.176-38.394 41.551l-4.8494 1.1546-5.4268 0.23092h-5.0804l-6.5814-0.11546-4.2721-0.23093-4.6185-1.2701c-16.036-9.7731-28.295-23.11-34.024-41.32-0.26276-4.0136-0.85065-7.8546-1.6165-11.793-0.45373-14.512-3.446-29-3.1175-43.53z" fill="#ffafaf" stroke="#e9afaf" stroke-width=".35402px" style="mix-blend-mode:normal"/>
   <path d="m203.2 92.585c9.9695 0.30305 13.59 5.5562 12.81 6.2049-2.6122 2.1735-6.0199 2.425-9.9607 2.549-1.0894 0.0343-3.2658 0.0637-3.2658 0.0637s-2.7213-0.0646-4.0822-0.0816c-2.7427-0.0342-5.7677-0.54212-7.5113-2.5311-1.7325-4.0996 6.4518-6.0306 12.01-6.2049z" fill="#c5e0f5"/>
   <ellipse cx="203.4" cy="96.97" rx="5.2253" ry="3.3678" fill="url(#radialGradient20)"/>
   <path d="m257.46 92.585c-9.9695 0.30305-13.59 5.5562-12.81 6.2049 2.6122 2.1735 6.0199 2.425 9.9607 2.549 1.0894 0.0343 3.2658 0.0637 3.2658 0.0637s2.7213-0.0646 4.0822-0.0816c2.7427-0.0342 5.7677-0.54212 7.5113-2.5311 1.7325-4.0996-6.4518-6.0306-12.01-6.2049z" fill="#c5e0f5"/>
   <ellipse cx="257.5" cy="96.97" rx="5.2253" ry="3.3678" fill="url(#radialGradient23)"/>
   <path d="m289.28 104.09-5.4232 10.553s2.1173-29.695 0.2653-40.478c-0.83379-4.8547-2.2108-10.208-4.3289-14.942-2.0852-4.6603-4.8773-9.0462-8.1297-12.985-2.2697-2.7484-5.0914-5.0027-7.8283-7.2879-2.8226-2.3568-5.6879-4.7047-8.8377-6.6042-3.1576-1.9042-6.1657-3.774-9.9927-4.7483-1.7556-0.44696-3.893 1.0879-6.1712 1.1563-2.2782 0.06844-3.1937-1.8297-3.1937-1.8297s-1.3809 1.1997-2.8614 2.7806c-1.4805 1.5808-2.3526 2.3275-3.5676 2.3823-1.4338 0.06469-3.1627-1.7889-4.4083-3.3264-1.2456-1.5374-2.7158-1.5434-2.7158-1.5434s-3.2963 1.3562-5.6618 1.3311c-2.3655-0.02505-3.8003-1.4313-5.6196-0.95221-4.5452 1.761-7.797 6.0206-11.293 9.2887-3.5369 3.2334-7.4354 6.0845-10.76 9.535-2.3258 2.4138-4.7926 4.8193-6.3841 7.7676-2.6082 4.8318-4.8968 15.723-4.8968 15.723l-1.5196 44.982-4.135-10.657 0.96566-30.041 1.1951-9.1655s1.2669-7.8589 2.7295-11.527c1.5075-3.7814 3.541-7.4225 6.1346-10.563 2.5843-3.1288 6.035-5.4353 9.185-7.996 11.933-9.701 6.324-4.0903 11.185-7.3883 0.95693-0.64918 1.6358-1.6483 2.5718-2.3269 0.88821-0.64393 1.8574-1.182 2.8576-1.6329 1.9262-0.86828 3.9412-1.5703 6.0009-2.0411 1.2028-0.27495 2.4434-0.36124 3.674-0.44905 0.65164-0.04649 1.3092 0.02146 1.9595-0.04082 2.2402-0.21454 4.4144-0.92273 6.654-1.143 2.0862-0.2052 4.2066-0.42341 6.2866-0.16329 2.6374 0.32981 5.1007 1.5002 7.6746 2.1636 3.7829 0.97496 7.7424 1.3295 11.412 2.6684 1.8983 0.69266 3.6284 1.7813 5.4039 2.7454 1.8913 1.027 3.7401 2.1308 5.587 3.2353 1.7786 1.0637 3.7212 1.9127 5.29 3.2658 1.9008 1.6394 3.2443 3.8294 4.8522 5.756 1.1791 1.4128 2.3665 2.8192 3.5163 4.2559 1.2573 1.571 2.5172 3.142 3.698 4.771 1.3128 1.8111 2.7546 3.5601 3.7613 5.557 0.7851 1.5575 1.2837 3.2509 1.7385 4.9343 1.0262 3.7986 1.1874 7.693 2.2171 11.594l0.61234 2.531c0.21193 22.86 0.73272 22.458 0.29976 30.855z" fill="#613d31"/>
   <path d="m178.93 145.41s-0.69448 0.50998-1.0614 0.7348c-0.34262 0.20994-0.6848 0.43135-1.0614 0.57151-0.23515 0.0875-0.48706 0.12353-0.7348 0.16329-0.27005 0.0433-0.54401 0.0575-0.81645 0.0816-0.35346 0.0312-0.7078 0.11141-1.0614 0.0816-0.33544-0.0283-0.65515-0.15572-0.97974-0.24493-0.27397-0.0753-0.55043-0.1451-0.81645-0.24494-0.30787-0.11555-0.60484-0.25944-0.89809-0.40822-0.44554-0.22604-0.88344-0.46876-1.3063-0.7348-0.28118-0.1769-0.56665-0.35252-0.81645-0.57152-0.33313-0.29205-0.62905-0.62775-0.89809-0.97973-0.3714-0.48589-0.67063-1.0235-0.97974-1.5512-0.37544-0.64096-0.8053-1.2622-1.0614-1.9595-0.18217-0.49603-0.32658-1.5512-0.32658-1.5512l-0.24493-1.388-0.7348-14.533-0.57152-1.0614-0.57151-1.2247-0.32658-1.3063-0.65316-1.9595 0.0816-6.205s0.26287-1.1453 0.40822-1.7145c0.15354-0.6013 0.31905-1.1996 0.48987-1.7962 0.15642-0.54631 0.26252-1.1121 0.48987-1.6329 0.21474-0.49193 0.47796-0.97138 0.81645-1.388 0.25514-0.31399 0.54897-0.61199 0.89809-0.81644 0.37132-0.21745 0.80122-0.33174 1.2247-0.40823 0.75036-0.13555 1.5372-0.22517 2.286-0.0816 0.73003 0.13995 1.4345 0.46857 2.0411 0.89809 0.48714 0.34489 1.2247 1.3063 1.2247 1.3063l0.65315 1.2247 1.3063 2.6943 1.7145 2.9392z" fill="#ffafaf"/>
   <path d="m281.33 145.41s0.69448 0.50998 1.0614 0.7348c0.34262 0.20994 0.6848 0.43135 1.0614 0.57151 0.23515 0.0875 0.48706 0.12353 0.7348 0.16329 0.27005 0.0433 0.54401 0.0575 0.81645 0.0816 0.35346 0.0312 0.7078 0.11141 1.0614 0.0816 0.33544-0.0283 0.65515-0.15572 0.97974-0.24493 0.27397-0.0753 0.55043-0.1451 0.81645-0.24494 0.30787-0.11555 0.60484-0.25944 0.89809-0.40822 0.44554-0.22604 0.88344-0.46876 1.3063-0.7348 0.28118-0.1769 0.56665-0.35252 0.81645-0.57152 0.33313-0.29205 0.62905-0.62775 0.89809-0.97973 0.3714-0.48589 0.67063-1.0235 0.97974-1.5512 0.37544-0.64096 0.8053-1.2622 1.0614-1.9595 0.18217-0.49603 0.32658-1.5512 0.32658-1.5512l0.24493-1.388 0.7348-14.533 0.57152-1.0614 0.57151-1.2247 0.32658-1.3063 0.65316-1.9595-0.0816-6.205s-0.26287-1.1453-0.40822-1.7145c-0.15354-0.6013-0.31905-1.1996-0.48987-1.7962-0.15642-0.54631-0.26252-1.1121-0.48987-1.6329-0.21474-0.49193-0.47796-0.97138-0.81645-1.388-0.25514-0.31399-0.54897-0.61199-0.89809-0.81644-0.37132-0.21745-0.80122-0.33174-1.2247-0.40823-0.75036-0.13555-1.5372-0.22517-2.286-0.0816-0.73003 0.13995-1.4345 0.46857-2.0411 0.89809-0.48714 0.34489-1.2247 1.3063-1.2247 1.3063l-0.65315 1.2247-1.3063 2.6943-1.7145 2.9392z" fill="#ffafaf"/>
   <path d="m208.96 153.56s0.0719-0.10091 3.7214 1.0471c3.5929 1.1302 7.3345 1.8413 11.084 2.1938 4.8283 0.45388 9.7094 0.20508 14.548-0.11547 3.0962-0.2051 6.1712-0.67605 9.237-1.1546 1.8571-0.2899 5.5422-1.0392 5.5422-1.0392s-2.7485 2.0914-4.2721 2.8866c-3.5104 1.8322-7.1862 3.5772-11.084 4.2721-5.04 0.89848-10.397 1.0378-15.357-0.23093-3.2843-0.84017-6.1017-2.9796-8.9933-4.7491-1.5383-0.94135-4.427-3.1103-4.427-3.1103z" fill="#e88888"/>
  </g>
  <path d="m220.77 89.319s1.8971 2.5945 2.4495 4.0821c1.2279 3.3065 0.99483 9.2451 0.54533 10.94-1.1383 6.9557-2.6094 14.71-5.9043 21.064-4.635 6.3022 0.0519 13.891 9.1375 13.891h8.9209c5.2362 0 13.745-5.0324 8.1193-13.891-4.9553-6.3163-4.7315-13.868-5.9043-21.064-0.58735-3.604-1.4325-7.3982-0.54532-10.94 0.38539-1.5388 2.4495-4.0821 2.4495-4.0821" fill="none" stroke="#ffadad" stroke-width=".53103" style="mix-blend-mode:color-burn"/>
  <path d="m185.22 91.25 5.7242-6.0609c1.4479-1.5331 3.6484-2.3221 5.7242-2.6937 3.8811-0.69489 7.8994 0.34177 11.785 1.0102 2.6293 0.45226 5.1351 2.5759 7.7445 2.0203 0.70293-0.14966 2.3118-0.99785 1.6836-1.3469l-6.0609-3.3672c-2.079-1.155-4.3966-1.9195-6.7344-2.357-3.3116-0.61972-6.7974-0.99499-10.102-0.33672-2.6601 0.52997-5.8124 1.1736-7.4078 3.3672l-5.3875 7.4078c-0.7527 1.035 2.1518 3.2874 3.0305 2.357z" fill="#613d31"/>
  <path d="m276.4 91.25-5.7242-6.0609c-1.4479-1.5331-3.6484-2.3221-5.7242-2.6937-3.8811-0.69489-7.8994 0.34177-11.785 1.0102-2.6293 0.45226-5.1351 2.5759-7.7445 2.0203-0.70293-0.14966-2.3118-0.99785-1.6836-1.3469l6.0609-3.3672c2.079-1.155 4.3966-1.9195 6.7344-2.357 3.3116-0.61972 6.7974-0.99499 10.102-0.33672 2.6601 0.52997 5.8124 1.1736 7.4078 3.3672l5.3875 7.4078c0.7527 1.035-2.1518 3.2874-3.0305 2.357z" fill="#613d31"/>
  <g fill="none" stroke="#ffafaf" stroke-width=".53103">
   <path d="m187.55 69.701s15.09-5.0341 22.897-6.3976c7.5387-1.3168 15.253-2.0615 22.897-1.6836 7.8512 0.38814 15.618 2.093 23.234 4.0406 5.0549 1.2927 14.816 5.0508 14.816 5.0508" style="mix-blend-mode:color-burn"/>
   <path d="m201.36 54.717s9.3987-1.4923 14.142-1.6836c7.4071-0.29878 14.85 0.07791 22.223 0.84179 5.3226 0.55141 10.672 1.254 15.826 2.6937 4.7073 1.3151 13.637 5.3875 13.637 5.3875" style="mix-blend-mode:color-burn"/>
   <path d="m204.56 140.75s-1.73 3.6158-2.6937 5.5558c-1.2484 2.513-1.4026 5.2775-1.5152 8.0812-0.14491 3.6071 2.1887 10.607 2.1887 10.607" style="mix-blend-mode:color-burn"/>
   <path d="m256.73 142.77s1.2249 2.774 2.1887 4.714c1.2484 2.513 0.72916 5.2775 0.84179 8.0812 0.14491 3.6071-1.8519 8.0812-1.8519 8.0812" style="mix-blend-mode:color-burn"/>
  </g>
  <ellipse cx="179.75" cy="157.42" rx="1.2374" ry="2.2097" fill="#8e321d" fill-opacity=".72549"/>
 </g>
</svg>
