<?xml version="1.0" encoding="UTF-8"?>
<!-- Created with Inkscape (http://www.inkscape.org/) -->
<svg width="100" height="120" version="1.1" viewBox="0 0 26.458 31.75" xmlns="http://www.w3.org/2000/svg" xmlns:xlink="http://www.w3.org/1999/xlink">
 <defs>
  <radialGradient id="radialGradient20" cx="203.4" cy="96.97" r="5.2253" gradientTransform="matrix(.062576 0 0 .040332 -1.1718 .92807)" gradientUnits="userSpaceOnUse" xlink:href="#linearGradient19"/>
  <linearGradient id="linearGradient19">
   <stop stop-color="#130f10" offset="0"/>
   <stop stop-color="#201412" stop-opacity=".84706" offset=".56519"/>
   <stop stop-color="#2e1914" stop-opacity=".5" offset="1"/>
  </linearGradient>
  <radialGradient id="radialGradient23" cx="257.5" cy="96.97" r="5.2253" gradientTransform="matrix(.062576 0 0 .040332 -1.1718 .92807)" gradientUnits="userSpaceOnUse" xlink:href="#linearGradient19"/>
 </defs>
 <g>
  <circle cx="13.229" cy="15.875" r="13.229" fill="#ffdbc6"/>
  <path d="m18.761 25.941a5.5693 5.2044 0 0 1-2.5682 5.0107 5.5693 5.2044 0 0 1-5.9453-0.01088 5.5693 5.2044 0 0 1-2.5471-5.0201" fill="#1c241c"/>
  <ellipse cx="13.229" cy="25.968" rx="5.5693" ry="3.3791" fill="#fc0"/>
  <path d="m12.005 11.105 0.0064 0.07666-0.0064 0.0511-0.04472 0.11179-0.1054 0.04791-0.11498 0.04152-0.03513 0.13734 0.11498 0.20442 0.70268 0.65158 0.68991-0.67074 0.15331-0.19803 0.0511-0.1597-0.09582-0.0511-0.06388-0.60047z" fill="#ffafaf"/>
  <path d="m11.513 25.044s-0.08986 0.28673-0.11498 0.43439c-0.01827 0.10739-0.0282 0.21689-0.02555 0.32579 0.0025 0.10086 0.0056 0.2048 0.03833 0.30024 0.0353 0.10294 0.08566 0.20776 0.16609 0.28107 0.06265 0.05711 0.1452 0.10751 0.22997 0.1086l0.24913 0.0032c0.06952 8.75e-4 0.14006-0.01807 0.18206-0.07346 0.0762-0.1005 0.12939-0.20196 0.15331-0.32579 0.016-0.08284 0.02903-0.19031 0.02875-0.27468-4.26e-4 -0.1278-0.03586-0.31131-0.07027-0.43438-0.03247-0.11617-0.12776-0.33857-0.12776-0.33857z" fill="#1a1a1a"/>
  <path d="m13.826 25.044s-0.08986 0.28673-0.11498 0.43439c-0.01827 0.10739-0.0282 0.21689-0.02555 0.32579 0.0025 0.10086 0.0056 0.2048 0.03833 0.30024 0.0353 0.10294 0.08566 0.20776 0.16609 0.28107 0.06265 0.05711 0.1452 0.10751 0.22997 0.1086l0.24913 0.0032c0.06952 8.75e-4 0.14005-0.01807 0.18206-0.07346 0.0762-0.1005 0.1294-0.20196 0.15331-0.32579 0.016-0.08284 0.02903-0.19031 0.02875-0.27468-4.26e-4 -0.1278-0.03586-0.31131-0.07027-0.43438-0.03247-0.11617-0.12776-0.33857-0.12776-0.33857z" fill="#1a1a1a"/>
  <path d="m9.389 16.584s0.01098 0.1895 0.02034 0.28359c0.01512 0.14122 0.08685 0.34235 0.05217 0.47929-0.32026 0.77938 0.04334 0.89605 0.34486 0.84838 0.43858-0.06934 0.09443-0.88457 0.09649-1.3286 4.97e-4 -0.10541-0.01998-0.3156-0.01998-0.3156z" fill="#ffafaf"/>
  <path d="m15.593 15.094s0.07354-0.17499 0.10655-0.2636c0.04858-0.13346 0.07269-0.34563 0.1641-0.45334 0.63059-0.55888 0.35545-0.82367 0.06373-0.91357-0.42434-0.13077-0.47411 0.75272-0.67139 1.1505-0.04683 0.09444-0.12096 0.29219-0.12096 0.29219z" fill="#ffafaf"/>
  <path d="m11.094 16.104 0.01355 0.16713-0.07679 0.35233-0.04517 0.22133-0.01807 0.15358 0.01355 0.14454-0.04065 0.11293-0.06776 0.29812v0.24392l-0.04517 0.19875s-0.0058 0.13852-0.0045 0.20778c9.46e-4 0.05127 4e-3 0.10255 9e-3 0.15358 0.0075 0.07565 0.02179 0.15047 0.03162 0.22585 0.01785 0.13685 0.0071 0.27977 0.04969 0.41105 0.0096 0.02949 0.03605 0.05167 0.04517 0.08131 0.06893 0.22396 0.03686 0.4673 0.06324 0.70014 0.0075 0.06644 0.0233 0.13199 0.0271 0.19875 0.0039 0.06916-0.0038 0.13851-0.0045 0.20778-7.81e-4 0.07227-0.0075 0.14493 0 0.21682 3e-3 0.02908 0.01372 0.05691 0.01807 0.08582 0.0049 0.03289 0.0065 0.06621 9e-3 0.09937 0.0094 0.12334 0.01358 0.24703 0.02258 0.3704 0.0052 0.07083 0.01395 0.1414 0.01807 0.2123 0.0056 0.09625 0.0029 0.19287 9e-3 0.28909 5e-3 0.0785 0.01585 0.15652 0.02258 0.23488 0.0085 0.09929 0.01386 0.19885 0.02258 0.29812 0.0079 0.09044 0.02796 0.18023 0.0271 0.27102-5.92e-4 0.06368-0.01784 0.12621-0.02259 0.18972-0.0073 0.09764-0.01129 0.19572-9e-3 0.29361 8.98e-4 0.03925 0.0052 0.07837 9e-3 0.11744 0.0099 0.09962 0.02272 0.19892 0.03614 0.29812 0.01367 0.10108 0.02196 0.20332 0.04517 0.30264 0.02016 0.08624 0.06371 0.16615 0.08131 0.25295 0.01682 0.08296 0.03452 0.16915 0.02258 0.25295-0.0093 0.0656-0.07679 0.16713-0.07227 0.1852 0.0045 0.01807-0.02668 0.2199 0.02258 0.31167 0.0198 0.03688 0.07056 0.04642 0.09937 0.07679 0.04916 0.05181 0.10998 0.10576 0.12196 0.17616 0.01048 0.06158-0.04969 0.18068-0.04969 0.18068l-9e-3 0.14454 9e-3 0.11292 0.08131 0.02258h0.81767s0.03162-0.08131 0.03162-0.09937c0-0.01807 0.01807-0.19423 0.01807-0.19423l-0.01355-0.19423s9e-3 -0.28006 0-0.30264c-9e-3 -0.02258-0.01129-0.20168-0.01355-0.30264-0.0021-0.09182 0.0017-0.18371 0-0.27554-0.0015-0.07984-0.0075-0.15956-9e-3 -0.2394-7.33e-4 -0.03914 5e-3 -0.07862 0-0.11744-0.01898-0.14669-0.08751-0.28341-0.11293-0.42912-0.0088-0.05063-0.0066-0.10266-0.01355-0.15358-0.01227-0.08953-0.03936-0.17673-0.04969-0.2665-0.02308-0.20064-0.01042-0.40401-0.0271-0.60528-0.0041-0.04988-0.01953-0.09903-0.01807-0.14906 0.0079-0.27071 0.09107-0.53402 0.14454-0.79951 0.02193-0.10887 0.03854-0.21942 0.07227-0.32522 0.01885-0.05915 0.05377-0.11239 0.07227-0.17165 0.02842-0.09105 0.03894-0.18675 0.05872-0.28006 0.02235-0.10545 0.04339-0.21119 0.06776-0.31619 0.01263-0.05443 0.0262-0.10864 0.04065-0.16261 0.02835-0.10588 0.07434-0.20775 0.09034-0.31619 0.01495-0.1013 7e-3 -0.20479 0.0045-0.30716-0.0023-0.09502-0.01807-0.28457-0.01807-0.28457s-0.02015-0.12262 0.02258-0.14906c0.0417-0.02581 0.10918 7e-3 0.14003 0.04517 0.04664 0.05766 0.01611 0.14746 0.02259 0.22133 0.0054 0.06166 3.6e-5 0.12479 0.01355 0.1852 0.0046 0.02046 0.01904 0.03805 0.02258 0.05872 0.0092 0.05345-0.01246 0.10897-0.0045 0.16261 0.0077 0.05181 0.0353 0.0987 0.04969 0.14906 0.05868 0.20542 0.02973 0.44614 0.14906 0.62335 0.0072 0.01075 0.02426 0.01193 0.03162 0.02258 0.17082 0.24731 0.1672 0.57793 0.23037 0.87178 0.0096 0.04477 0.0084 0.09196 0.02258 0.13551 0.01041 0.03202 0.0331 0.05891 0.04517 0.09034 0.02633 0.06854 0.04445 0.14028 0.05872 0.2123 0.01209 0.061 0.01718 0.12324 0.02258 0.1852 5e-3 0.05708 0.01284 0.11448 9e-3 0.17165-0.0049 0.07337-0.03819 0.14333-0.04065 0.21682-0.0021 0.06365 0.02245 0.12603 0.02258 0.18972 1.96e-4 0.09245-0.03484 0.18314-0.03162 0.27554 0.0023 0.06581 0.02781 0.1289 0.03614 0.19423 0.0082 0.06438 0.01509 0.12935 0.01355 0.19423-0.0018 0.0773-0.02258 0.15318-0.0271 0.23037-0.01401 0.23899-0.02177 0.4798 0 0.7182 0.0053 0.05794 0.02571 0.11377 0.03162 0.17165 0.0072 0.07042-0.01112 0.14327 0.0045 0.2123 0.01131 0.04995 0.04107 0.09386 0.06324 0.14003 0.04021 0.08377 0.12648 0.24844 0.12648 0.24844l0.0045 0.08582-0.01807 0.14906 0.02258 0.28006h0.82481l0.07679-0.2665s0.02831-0.13722 0.03343-0.2123c0.0029-0.04302-0.01807-0.09034-0.0271-0.12648-9e-3 -0.03614-0.07679-0.50139-0.07679-0.50139l-9e-3 -0.14906 0.02258-0.17616 0.03162-0.17165-0.0045-0.43363s-0.0058-0.28018 0-0.42008c0.0038-0.09058 0.0041-0.18227 0.02258-0.27102 0.01718-0.08251 0.06545-0.15663 0.08131-0.2394 0.01106-0.05775 0.01548-0.11772 9e-3 -0.17616-0.0093-0.08388-0.03809-0.16492-0.06775-0.24392-0.01468-0.03909-0.04155-0.07314-0.0542-0.11292-0.07082-0.22268-0.09877-0.45818-0.11744-0.6911-0.01444-0.18011-0.0088-0.36185 0.0045-0.54204 0.0064-0.08643 0.03355-0.17084 0.03614-0.25747 0.0034-0.11324-0.0271-0.22549-0.0271-0.33878 0-0.03776 0.0019-0.07584 9e-3 -0.11292 0.0154-0.08046 0.06092-0.15376 0.07227-0.23488 0.01023-0.07308-0.01077-0.14781-0.0045-0.22133 0.0068-0.07944 0.03528-0.15577 0.04517-0.23488 0.01272-0.10177 0.01072-0.20486 0.01807-0.30716 0.0064-0.08892 0.02462-0.17737 0.02258-0.2665-0.0029-0.12752-0.03809-0.2524-0.04969-0.37943-0.01056-0.11561-0.01819-0.23172-0.01807-0.34781 5.4e-5 -0.05579 0.0065-0.1114 9e-3 -0.16713 0.0036-0.07827 0.01499-0.15676 9e-3 -0.23488-0.0066-0.08715-0.02938-0.17246-0.04969-0.25747-0.02292-0.09595-0.05088-0.19073-0.08131-0.28457-0.01087-0.03353-0.03002-0.06466-0.03613-0.09938-0.01228-0.06969 0-0.2123 0-0.2123l-0.04969-0.34781-0.04969-0.28005z" fill="#5f8dd3"/>
  <path d="m11.958 11.344c-0.1333 0.02267-1.0792 0.27956-1.2882 0.40483-0.04275 0.02536-0.19103 0.06795-0.21964 0.1086-0.07016 0.09968-0.16609 0.24449-0.16609 0.24449l-0.19803 0.44716-0.24274 0.77934-0.1597 0.58131-0.24274 1.0157-0.12137 0.54937-0.06388 0.34495-0.03833 0.46632 0.01917 0.51743 0.69772-0.09582-0.03833-0.35773 0.02555-0.22997 0.09582-0.61964 0.17886-0.67074 0.21719-0.78573 0.14692-0.30663s0.05222-0.08006 0.08943-0.1086c0.04083-0.03131 0.05953-0.05299 0.10982-0.06388 0.06659-0.01442 0.06729-0.01415 0.13395 0 0.07433 0.01445 0.13298 0.04328 0.1597 0.1086 0 0 0.05041 0.09042 0.05749 0.14054 0.01108 0.07846-0.02555 0.23636-0.02555 0.23636l-0.01916 0.17886-0.01278 0.35134 0.0064 0.49827v0.51104l0.03194 0.5877s4.49e-4 0.02681 0.0064 0.03833c0.0248 0.0482 0.07161 0.08248 0.11498 0.11498 0.10295 0.07714 0.22133 0.1323 0.33856 0.18525 0.18784 0.08485 0.38076 0.16322 0.58131 0.2108 0.12309 0.02921 0.25077 0.03476 0.37689 0.04472 0.16145 0.01275 0.32376 0.02783 0.48549 0.01916 0.13111-7e-3 0.26404-0.01934 0.38967-0.05749 0.13306-0.0404 0.25659-0.10911 0.37689-0.17886 0.10322-0.05985 0.20008-0.13063 0.29385-0.20442l0.38967-0.30662-0.04472-0.16609-0.12776-0.43439-0.17248-0.61964-0.04472-0.30662s-0.0046-0.39194 0.03833-0.58131c0.0203-0.08946 0.01078-0.26305 0.10221-0.25552 0.08908 0.0073 0.02733 0.16745 0.04259 0.25552 0.01722 0.09941 0.07326 0.41505 0.09299 0.62463 0.01 0.10608 0.0015 0.21344 0.01278 0.3194 0.01185 0.11174 0.0511 0.30662 0.05749 0.33218 0.0064 0.02555 0.04399 0.15843 0.08304 0.22997 0.04367 0.08 0.21312 0.1858 0.3025 0.20364 0.06677 0.01332 0.06426 0.014 0.11627 0.01413 0.06804 1.62e-4 0.22274-0.03219 0.22274-0.03219 0.06106-0.02587 0.19158-0.12281 0.23275-0.1748 0.0923-0.11659 0.21268-0.32869 0.21268-0.32869l0.14209-0.27914-0.51407-0.18467s-0.10515 0.33599-0.20081 0.37354c-0.10608-0.02018-0.04447-0.36444-0.042-0.42336-0.0071-0.08805-0.03718-0.61076-0.03718-0.61076l-0.01259-0.58021c0.02215-0.37438-0.0025-0.53885-0.13119-1.0296 0 0-0.18347-0.22748-0.2543-0.31301-0.06149-0.07425-0.1781-0.15038-0.26191-0.19803l-0.93981-0.53433s-0.32134 0.74034-0.65183 0.74739c-0.3436 0.0073-0.71022-0.74739-0.71022-0.74739z" fill="#8a916f"/>
  <path d="m9.7311 5.1726c0.0058-0.60938 0.03323-1.2189 0.0578-1.828 0.14837-1.088 0.77545-2.5802 3.0201-3.0563l0.31068-0.0072c1.9039 0.19528 3.0798 0.96306 3.6049 3.0635l0.07275 1.828-0.19853 2.7239-0.11076 0.73797c-0.156 0.72938-1.7181 2.3263-2.4025 2.6001l-0.30346 0.07225-0.33959 0.01445h-0.31791l-0.41184-0.0072-0.26733-0.01445-0.28901-0.07948c-1.0034-0.61156-1.7706-1.4461-2.1291-2.5856-0.01644-0.25116-0.05323-0.49151-0.10115-0.73797-0.02839-0.90811-0.21563-1.8147-0.19508-2.7239z" fill="#ffafaf" stroke="#e9afaf" stroke-width=".18521" style="mix-blend-mode:normal"/>
  <path d="m11.543 4.5647c0.62385 0.01896 0.8504 0.34768 0.80161 0.38828-0.16346 0.13601-0.3767 0.15174-0.6233 0.15951-0.06817 0.0022-0.20436 4e-3 -0.20436 4e-3s-0.17029-4e-3 -0.25545-0.0051c-0.17163-0.0021-0.36092-0.03392-0.47003-0.15839-0.10841-0.25654 0.40373-0.37737 0.75153-0.38828z" fill="#c5e0f5"/>
  <ellipse cx="11.556" cy="4.8391" rx=".32698" ry=".21075" fill="url(#radialGradient20)"/>
  <path d="m14.939 4.5647c-0.62385 0.01896-0.8504 0.34768-0.80161 0.38828 0.16346 0.13601 0.3767 0.15174 0.6233 0.15951 0.06817 0.0022 0.20436 4e-3 0.20436 4e-3s0.17029-4e-3 0.25545-0.0051c0.17163-0.0021 0.36092-0.03392 0.47003-0.15839 0.10841-0.25654-0.40373-0.37737-0.75153-0.38828z" fill="#c5e0f5"/>
  <ellipse cx="14.941" cy="4.8391" rx=".32698" ry=".21075" fill="url(#radialGradient23)"/>
  <path d="m16.93 5.2846-0.33937 0.66034s0.1325-1.8582 0.0166-2.533c-0.05217-0.30378-0.13834-0.63878-0.27089-0.93502-0.13048-0.29162-0.3052-0.56608-0.50872-0.81252-0.14203-0.17198-0.313-0.32008-0.48986-0.45605-0.19361-0.14884-0.40169-0.28097-0.62026-0.38988-0.166-0.08271-0.28059-0.13677-0.52007-0.19774-0.10986-0.02797-0.28161-0.054707-0.42417-0.050417-0.14256 0.0043-0.19985-0.1145-0.19985-0.1145s-0.08641 0.07508-0.17905 0.174c-0.09264 0.09892-0.14722 0.14565-0.22324 0.14908-0.08972 4e-3 -0.19791-0.11194-0.27585-0.20815-0.07794-0.09621-0.16994-0.09658-0.16994-0.09658s-0.27551 0.54166-0.38737 0.17838c-0.04356-0.14148-0.1882-0.023424-0.30204 0.006556-0.28442 0.1102-0.49721 0.25677-0.72318 0.42002-0.24308 0.17562-0.46528 0.38074-0.67333 0.59666-0.14554 0.15105-0.2999 0.30158-0.39949 0.48607-0.16321 0.30235-0.30642 0.98391-0.30642 0.98391l-0.09509 2.8148-0.25875-0.66686 0.06043-1.8798 0.07478-0.57354s0.07928-0.49178 0.1708-0.72134c0.09433-0.23662 0.22158-0.46447 0.38388-0.66097 0.16172-0.19579 0.37765-0.34012 0.57476-0.50036 0.74674-0.60705 0.39573-0.25596 0.69994-0.46233 0.05988-0.04062 0.10236-0.10314 0.16093-0.14561 0.05558-0.04029 0.11623-0.07397 0.17882-0.10218 0.12053-0.05433 0.24662-0.09826 0.37551-0.12772 0.07526-0.01721 0.1529-0.0226 0.22991-0.0281 0.04078-0.0029 0.08192 0.0013 0.12262-0.0026 0.14019-0.01342 0.27623-0.05774 0.41638-0.07153 0.13055-0.01284 0.26323-0.0265 0.3934-0.01022 0.16504 0.02064 0.31918 0.09388 0.48025 0.13539 0.23672 0.06101 0.48449 0.0832 0.71411 0.16698 0.11879 0.04334 0.22705 0.11147 0.33816 0.1718 0.11835 0.06427 0.23404 0.13334 0.34962 0.20245 0.1113 0.06656 0.23286 0.11969 0.33103 0.20436 0.11895 0.10259 0.20302 0.23963 0.30364 0.36018 0.07378 0.08841 0.14809 0.17641 0.22004 0.26632 0.07868 0.09831 0.15751 0.19661 0.2314 0.29855 0.08215 0.11333 0.17238 0.22278 0.23537 0.34774 0.04913 0.09746 0.08033 0.20343 0.10879 0.30877 0.06422 0.2377 0.0743 0.4814 0.13874 0.72548l0.03832 0.15838c0.01326 1.4305 0.04585 1.4053 0.01876 1.9308z" fill="#613d31"/>
  <path d="m10.025 7.8702s-0.04346 0.03191-0.06642 0.04598c-0.02144 0.01314-0.04285 0.02699-0.06642 0.03576-0.01472 0.0055-0.03048 0.0077-0.04598 0.01022-0.0169 0.0027-0.03404 0.0036-0.05109 0.0051-0.02212 2e-3 -0.04429 7e-3 -0.06642 0.0051-0.02099-0.0018-0.041-0.0097-0.06131-0.01532-0.01714-0.0047-0.03444-0.0091-0.05109-0.01533-0.01927-0.0072-0.03785-0.01623-0.0562-0.02554-0.02788-0.01415-0.05528-0.02933-0.08174-0.04598-0.01759-0.01107-0.03546-0.02206-0.05109-0.03576-0.02085-0.01828-0.03936-0.03928-0.0562-0.06131-0.02324-0.03041-0.04196-0.06405-0.06131-0.09707-0.02349-0.04011-0.05039-0.07898-0.06642-0.12262-0.0114-0.03104-0.02044-0.09707-0.02044-0.09707l-0.01533-0.08685-0.04598-0.9094-0.03576-0.06642-0.03576-0.07664-0.02044-0.08174-0.04087-0.12262 0.0051-0.38828s0.01645-0.07167 0.02555-0.10729c0.0096-0.03763 0.01996-0.07506 0.03065-0.1124 0.0098-0.03419 0.01643-0.06959 0.03065-0.10218 0.01344-0.03078 0.02991-0.06079 0.05109-0.08685 0.01597-0.01965 0.03435-0.0383 0.0562-0.05109 0.02323-0.01361 0.05014-0.02076 0.07663-0.02555 0.04696-0.0085 0.09619-0.01409 0.14305-0.0051 0.04568 0.0088 0.08976 0.02932 0.12773 0.0562 0.03048 0.02158 0.07664 0.08174 0.07664 0.08174l0.04087 0.07663 0.08174 0.1686 0.10729 0.18392z" fill="#ffafaf"/>
  <path d="m16.433 7.8702s0.04346 0.03191 0.06642 0.04598c0.02144 0.01314 0.04285 0.02699 0.06642 0.03576 0.01472 0.0055 0.03048 0.0077 0.04598 0.01022 0.0169 0.0027 0.03404 0.0036 0.05109 0.0051 0.02212 2e-3 0.04429 7e-3 0.06642 0.0051 0.02099-0.0018 0.041-0.0097 0.06131-0.01533 0.01714-0.0047 0.03444-0.0091 0.05109-0.01533 0.01927-0.0072 0.03785-0.01623 0.0562-0.02555 0.02788-0.01415 0.05528-0.02933 0.08174-0.04598 0.0176-0.01107 0.03546-0.02206 0.05109-0.03576 0.02085-0.01827 0.03936-0.03928 0.0562-0.06131 0.02324-0.03041 0.04197-0.06405 0.06131-0.09707 0.02349-0.04011 0.05039-0.07898 0.06642-0.12262 0.0114-0.03104 0.02044-0.09707 0.02044-0.09707l0.01533-0.08685 0.04598-0.9094 0.03576-0.06642 0.03576-0.07663 0.02044-0.08175 0.04087-0.12262-0.0051-0.38828s-0.01645-0.07167-0.02554-0.10729c-0.0096-0.03763-0.01996-0.07506-0.03065-0.1124-0.0098-0.03419-0.01643-0.06959-0.03065-0.10218-0.01344-0.03078-0.02991-0.06079-0.05109-0.08685-0.01597-0.01965-0.03435-0.0383-0.0562-0.05109-0.02323-0.01361-0.05014-0.02076-0.07663-0.02555-0.04696-0.0085-0.09619-0.01409-0.14305-0.0051-0.04568 0.0088-0.08976 0.02932-0.12773 0.0562-0.03048 0.02158-0.07663 0.08174-0.07663 0.08174l-0.04087 0.07663-0.08175 0.1686-0.10729 0.18392z" fill="#ffafaf"/>
  <path d="m11.904 8.3801s0.0045-0.0063 0.23287 0.06552c0.22483 0.07072 0.45896 0.11522 0.69362 0.13728 0.30214 0.0284 0.60757 0.01283 0.91038-0.0072 0.19375-0.01283 0.38617-0.0423 0.57802-0.07225 0.11621-0.01814 0.34681-0.06503 0.34681-0.06503s-0.17199 0.13087-0.26733 0.18063c-0.21966 0.11465-0.44968 0.22385-0.69362 0.26733-0.31538 0.05622-0.6506 0.06494-0.96096-0.01445-0.20552-0.05257-0.38182-0.18645-0.56276-0.29718-0.09626-0.05891-0.27703-0.19463-0.27703-0.19463z" fill="#e88888"/>
 </g>
 <path d="m12.643 4.3603s0.11871 0.16235 0.15328 0.25544c0.07684 0.20691 0.06225 0.57852 0.03412 0.68461-0.07123 0.43526-0.16329 0.92048-0.36947 1.3181-0.29004 0.39437 0.0032 0.86925 0.57179 0.86925h0.55824c0.32766 0 0.86012-0.31491 0.50807-0.86925-0.31009-0.39525-0.29608-0.86779-0.36947-1.3181-0.03675-0.22552-0.08964-0.46295-0.03412-0.68461 0.02412-0.09629 0.15328-0.25544 0.15328-0.25544" fill="none" stroke="#ffadad" stroke-width=".21167" style="mix-blend-mode:color-burn"/>
 <path d="m10.419 4.4812 0.3582-0.37927c0.09061-0.09594 0.2283-0.14531 0.3582-0.16856 0.24286-0.04348 0.49432 0.02139 0.73747 0.06321 0.16453 0.0283 0.32133 0.16119 0.48462 0.12642 0.04399-0.0094 0.14467-0.06244 0.10535-0.08428l-0.37927-0.2107c-0.1301-0.07228-0.27512-0.12012-0.42141-0.14749-0.20722-0.03878-0.42536-0.06226-0.63212-0.02107-0.16646 0.03316-0.36372 0.07344-0.46355 0.2107l-0.33713 0.46355c-0.0471 0.06476 0.13465 0.20571 0.18963 0.14749z" fill="#613d31"/>
 <path d="m16.124 4.4812-0.3582-0.37927c-0.09061-0.09594-0.2283-0.14531-0.3582-0.16856-0.24286-0.04348-0.49432 0.02139-0.73747 0.06321-0.16453 0.0283-0.32133 0.16119-0.48462 0.12642-0.04399-0.0094-0.14466-0.06244-0.10535-0.08428l0.37927-0.2107c0.1301-0.07228 0.27512-0.12012 0.42141-0.14749 0.20722-0.03878 0.42536-0.06226 0.63212-0.02107 0.16646 0.03316 0.36372 0.07344 0.46355 0.2107l0.33713 0.46355c0.0471 0.06476-0.13465 0.20571-0.18964 0.14749z" fill="#613d31"/>
 <g fill="none" stroke="#ffafaf" stroke-width=".21167">
  <path d="m10.565 3.1327s0.9443-0.31501 1.4328-0.40034c0.47174-0.0824 0.95449-0.129 1.4328-0.10535 0.4913 0.02429 0.9773 0.13097 1.4539 0.25285 0.31632 0.08089 0.9271 0.31606 0.9271 0.31606" style="mix-blend-mode:color-burn"/>
  <path d="m11.428 2.195s0.58813-0.09338 0.88496-0.10535c0.46351-0.0187 0.92924 0.0049 1.3907 0.05268 0.33307 0.0345 0.66781 0.07847 0.99031 0.16856 0.29457 0.08229 0.85336 0.33713 0.85336 0.33713" style="mix-blend-mode:color-burn"/>
  <path d="m11.629 7.5785s-0.10826 0.22626-0.16856 0.34766c-0.07812 0.15725-0.08777 0.33024-0.09482 0.50569-0.0091 0.22572 0.13696 0.66372 0.13696 0.66372" style="mix-blend-mode:color-burn"/>
  <path d="m14.893 7.705s0.07665 0.17359 0.13696 0.29499c0.07812 0.15725 0.04563 0.33024 0.05268 0.50569 0.0091 0.22572-0.11589 0.50569-0.11589 0.50569" style="mix-blend-mode:color-burn"/>
 </g>
 <ellipse cx="10.076" cy="8.6218" rx=".077434" ry=".13827" fill="#8e321d" fill-opacity=".72549"/>
</svg>
