<?xml version="1.0" encoding="UTF-8" standalone="no"?>
<!-- Created with Inkscape (http://www.inkscape.org/) -->

<svg
   width="32"
   height="32"
   viewBox="0 0 8.4666665 8.4666666"
   version="1.1"
   id="svg1"
   inkscape:version="1.3.2 (091e20e, 2023-11-25, custom)"
   sodipodi:docname="menu.svg"
   xmlns:inkscape="http://www.inkscape.org/namespaces/inkscape"
   xmlns:sodipodi="http://sodipodi.sourceforge.net/DTD/sodipodi-0.dtd"
   xmlns="http://www.w3.org/2000/svg"
   xmlns:svg="http://www.w3.org/2000/svg">
  <sodipodi:namedview
     id="namedview1"
     pagecolor="#ffffff"
     bordercolor="#666666"
     borderopacity="1.0"
     inkscape:showpageshadow="2"
     inkscape:pageopacity="0.0"
     inkscape:pagecheckerboard="0"
     inkscape:deskcolor="#d1d1d1"
     inkscape:document-units="px"
     inkscape:zoom="11.313708"
     inkscape:cx="16.042485"
     inkscape:cy="21.876116"
     inkscape:window-width="1920"
     inkscape:window-height="1009"
     inkscape:window-x="-8"
     inkscape:window-y="-8"
     inkscape:window-maximized="1"
     inkscape:current-layer="layer1" />
  <defs
     id="defs1" />
  <g
     inkscape:label="Livello 1"
     inkscape:groupmode="layer"
     id="layer1">
    <path
       style="fill:#333333;fill-opacity:1;stroke:none;stroke-width:0.264583px;stroke-linecap:butt;stroke-linejoin:miter;stroke-opacity:1"
       d="M 0.52916664,1.7197915 H 7.9374999 c 0.1247258,0 0.5291667,0.1763889 0.5291667,0.396875 0,0.2204861 -0.4044409,0.396875 -0.5291667,0.396875 H 0.52916664 C 0.40444086,2.5135415 -2.5e-8,2.3371526 -2.5e-8,2.1166665 c 0,-0.2204861 0.404440885,-0.396875 0.529166665,-0.396875 z"
       id="path1"
       sodipodi:nodetypes="ssassas" />
    <path
       style="fill:#333333;fill-opacity:1;stroke:none;stroke-width:0.264583px;stroke-linecap:butt;stroke-linejoin:miter;stroke-opacity:1"
       d="M 0.52916664,3.8364583 H 7.9374999 c 0.1247258,0 0.5291667,0.1763889 0.5291667,0.396875 0,0.2204861 -0.4044409,0.396875 -0.5291667,0.396875 H 0.52916664 C 0.40444086,4.6302083 -2.5e-8,4.4538194 -2.5e-8,4.2333333 c 0,-0.2204861 0.404440885,-0.396875 0.529166665,-0.396875 z"
       id="path2"
       sodipodi:nodetypes="ssassas" />
    <path
       style="fill:#333333;fill-opacity:1;stroke:none;stroke-width:0.264583px;stroke-linecap:butt;stroke-linejoin:miter;stroke-opacity:1"
       d="M 0.52916664,5.9531251 H 7.9374999 c 0.1247258,0 0.5291667,0.1763889 0.5291667,0.396875 0,0.2204861 -0.4044409,0.396875 -0.5291667,0.396875 H 0.52916664 C 0.40444086,6.7468751 -2.5e-8,6.5704862 -2.5e-8,6.3500001 c 0,-0.2204861 0.404440885,-0.396875 0.529166665,-0.396875 z"
       id="path3"
       sodipodi:nodetypes="ssassas" />
  </g>
</svg>
