<?xml version="1.0" encoding="UTF-8"?>
<svg width="32" height="32" version="1.1" viewBox="0 0 32 32" xmlns="http://www.w3.org/2000/svg">
 <path d="m28.41 7.0049-11.101-6.658a2.6426 2.6426 0 0 0-2.6176 0l-11.102 6.6573a2.7283 2.7283 0 0 0-1.3028 2.3405v13.297a2.7326 2.7326 0 0 0 1.3028 2.3427l2.9112 1.7384 0.01643 0.0093c1.4699 0.75208 2.0327 0.75208 2.6848 0.75208 2.2955 0 3.7218-1.4856 3.7218-3.8775v-12.893a0.60781 0.60781 0 0 0-0.60138-0.61281h-1.5984a0.60781 0.60781 0 0 0-0.60138 0.61281v12.893a1.0713 1.0713 0 0 1-0.48925 0.9335c-0.42139 0.25712-1.0335 0.20284-1.7241-0.15356l-2.7898-1.6791a0.078565 0.078565 0 0 1-0.03428-0.06571v-13.109a0.094278 0.094278 0 0 1 0.04214-0.075708l10.845-6.6423a0.058567 0.058567 0 0 1 0.05214 0l10.851 6.6423a0.095706 0.095706 0 0 1 0.03928 0.078565v13.106a0.091421 0.091421 0 0 1-0.03214 0.07142l-10.861 6.4745a0.087136 0.087136 0 0 1-0.05714 0l-2.7733-1.647a0.5571 0.5571 0 0 0-0.55924-0.02928l-0.02428 0.01429c-0.76565 0.45353-0.97135 0.57138-1.6813 0.82993-0.1157 0.04214-0.38782 0.14284-0.41139 0.41211-0.02357 0.26926 0.23498 0.46068 0.46496 0.59424l3.7068 2.2762a2.5476 2.5476 0 0 0 1.307 0.36211h0.04143a2.5619 2.5619 0 0 0 1.2735-0.36211l11.101-6.6516a2.7405 2.7405 0 0 0 1.3028-2.3448v-13.297a2.7291 2.7291 0 0 0-1.3028-2.3398z" fill="#f39d20"/>
 <path d="m19.705 20.431c-2.6634 0-3.2312-0.74422-3.3997-1.9456a0.60209 0.60209 0 0 0-0.5871-0.52281h-1.4142a0.60281 0.60281 0 0 0-0.58995 0.61281c0 1.0413 0.36568 4.4404 5.9938 4.4404 1.7413 0 3.1897-0.40711 4.1875-1.1778s1.532-1.892 1.532-3.2283c0-2.6819-1.7499-3.4161-5.196-3.8961-3.5033-0.4871-3.5033-0.73494-3.5033-1.2778 0-0.39068 0-1.3056 2.5326-1.3056 1.802 0 2.7669 0.22784 3.0755 1.4285a0.59638 0.59638 0 0 0 0.57567 0.47639h1.4192a0.58852 0.58852 0 0 0 0.43996-0.20427 0.63638 0.63638 0 0 0 0.15142-0.45996c-0.18356-2.5391-2.0398-3.8268-5.6595-3.8268-3.2897 0-5.2531 1.482-5.2531 3.964 0 2.7212 2.0348 3.4904 5.0917 3.809 3.5711 0.36926 3.5711 0.90778 3.5711 1.3835 0.0021 0.74137-0.30569 1.7306-2.9676 1.7306z" fill="#f39d20"/>
</svg>
