<?xml version="1.0" encoding="UTF-8"?>
<!-- Created with Inkscape (http://www.inkscape.org/) -->
<svg width="32" height="32" version="1.1" viewBox="0 0 8.4667 8.4667" xmlns="http://www.w3.org/2000/svg">
 <g transform="scale(.26458)">
  <circle cx="16" cy="16" r="16" fill="#7a86b8" stroke-width=".8"/>
  <path d="m10.021 15.912c-0.45917 3.556-2.0808 3.1872-4.0743 3.1872l0.79627-6.1989c2.2086 0 3.7082-0.35999 3.2781 3.0116zm-7.0211 9.4651h2.1331l0.50566-3.9336c2.3888 0 3.8709 0.2634 5.2426-1.677 1.517-2.1073 1.9122-5.8564 0.83113-7.7354-0.56379-0.98339-1.4705-1.4663-2.7027-1.4663h-4.1092zm10.793-18.755h2.1214l-0.50566 3.9336c1.8308 0 3.528-0.20195 4.3475 0.93949 0.8602 1.1941 0.44753 2.7219-0.48241 9.9305h-2.1505c0.89508-6.9715 1.0636-7.551 0.73815-8.0778-0.31385-0.50926-1.0288-0.40389-2.755-0.40389l-1.0927 8.4817h-2.1214zm12.897 9.2895c-0.46498 3.6087-2.1331 3.1872-4.0743 3.1872l0.79627-6.1989c2.2203 0 3.7082-0.35999 3.2781 3.0116zm-7.0211 9.4651h2.1389l0.50566-3.9336c2.5109 0 3.9 0.2195 5.2426-1.677 1.517-2.1073 1.9122-5.8564 0.83115-7.7354-0.56379-0.98339-1.4705-1.4663-2.7027-1.4663h-4.1092z" fill="#1a1a1a"/>
 </g>
</svg>
