<?xml version="1.0" encoding="UTF-8"?>
<!-- Created with Inkscape (http://www.inkscape.org/) -->
<svg width="250" height="130" version="1.1" viewBox="0 0 66.146 34.396" xmlns="http://www.w3.org/2000/svg">
 <rect x="2.3931e-16" width="66.146" height="34.396" rx="4.8566" ry="4.6661" fill="#f2f2f2" stroke-width=".21167"/>
 <g transform="matrix(1.0742 0 0 1.0745 6.8967 5.1362)" stroke-width=".9308">
  <g transform="matrix(-1.0084 .11553 .026288 -.99466 29.959 21.64)">
   <rect x=".374" y="7.748" width="12.964" height="12.964" rx="3.8486" ry="3.7984" fill="#c83771" stroke="#c83771" stroke-linecap="round" stroke-width=".24666" paint-order="markers stroke fill"/>
   <rect x="-.552" y="6.875" width="12.964" height="12.964" rx="3.8486" ry="3.7984" fill="#ff6f91" stroke="#ff6f91" stroke-linecap="round" stroke-width=".24666" paint-order="markers stroke fill"/>
   <g transform="matrix(-1 0 0 -1 46.145 179.24)" stroke-width=".9308">
    <path d="m34.3 169.62h9.9022v-6.2835" fill="none" stroke="#fff" stroke-width=".4924"/>
    <path d="m40.645 169.37h1.5875v-5.0664l-1.5875-9e-5zm-2.8674 0h1.5874v-7.6242l-1.5875-7e-5zm-2.8674 8e-3h1.5875v-3.7327c-0.702-8e-3 -0.8855 8e-3 -1.5875-8e-5z" fill="#fff" stroke-width=".9308"/>
    <path d="m44.205 161.68-1.264 1.6552h2.6086z" fill="#fff"/>
   </g>
  </g>
  <g transform="matrix(-1.0312 .1609 .027748 -.97407 39.424 26.219)">
   <rect x=".374" y="7.748" width="12.964" height="12.964" rx="3.8486" ry="3.7984" fill="#f60" stroke="#f60" stroke-linecap="round" stroke-width=".24666" paint-order="markers stroke fill"/>
   <rect x="-.552" y="6.875" width="12.964" height="12.964" rx="3.8486" ry="3.7984" fill="#ff9671" stroke="#ff9671" stroke-linecap="round" stroke-width=".24666" paint-order="markers stroke fill"/>
   <g transform="matrix(-.52273 .059835 -.061501 -.53728 126.71 17.373)" stroke="#fff">
    <g stroke-width=".4617">
     <g aria-label="1010001">
      <path d="m222.6 35.984c0.0613 2.9726-1.1055 0.53351-1.327-0.88883 0.13918-0.17088 0.31488-0.25632 0.52709-0.25632 0.10335 0 0.19982 0.02067 0.28939 0.06201 0.0896 0.03996 0.16606 0.09646 0.22945 0.1695 0.0413 0.04685 0.0854 0.12058 0.13229 0.22118 0.0469 0.1006 0.0813 0.19224 0.10335 0.27492 0.0303 0.11851 0.0455 0.25769 0.0455 0.41755zm-0.17364 0.02274c0-0.16399-0.0234-0.31626-0.0703-0.45682-0.0455-0.14194-0.0971-0.25494-0.15503-0.339-0.0345-0.04823-0.0792-0.08957-0.13435-0.12402-0.0786-0.04823-0.16675-0.07235-0.26459-0.07235-0.1943 0-0.34657 0.09922-0.45682 0.29766 0.33998 1.0408 1.0809 2.9707 1.0811 0.69453z" stroke-width=".23085"/>
      <path d="m224.43 34.866v2.4557h0.59531q0.062 0 0.0889 0.0248 0.0269 0.02274 0.0269 0.06201 0 0.03721-0.0269 0.06201t-0.0889 0.0248h-1.3643q-0.062 0-0.0889-0.0248-0.0269-0.02481-0.0269-0.06201 0-0.03927 0.0269-0.06201 0.0269-0.0248 0.0889-0.0248h0.59532v-2.2159l-0.56638 0.17777q-0.0413 0.0124-0.0599 0.0124-0.031 0-0.0579-0.02481-0.0248-0.02687-0.0248-0.06201 0-0.03101 0.0207-0.05788 0.0165-0.01654 0.0682-0.03514z" stroke-width=".36936"/>
      <path d="m227.68 35.984v0.42995q0 0.56017-0.26665 0.88677-0.20877 0.25632-0.5271 0.25632-0.15296 0-0.28939-0.06201-0.13436-0.05994-0.22944-0.1695-0.0599-0.06821-0.13229-0.21911-0.0703-0.1509-0.10129-0.27699-0.0475-0.17777-0.0475-0.41548v-0.42995q0-0.56224 0.26665-0.88883 0.20877-0.25632 0.5271-0.25632 0.15503 0 0.28939 0.06201 0.13435 0.05994 0.22944 0.1695 0.062 0.07028 0.13229 0.22118 0.0703 0.1509 0.10335 0.27492 0.0455 0.17777 0.0455 0.41755zm-0.17363 0.02274q0-0.24598-0.0703-0.45682-0.0682-0.21291-0.15503-0.339-0.0517-0.07235-0.13436-0.12402-0.11782-0.07235-0.26459-0.07235-0.29145 0-0.45681 0.29766-0.16537 0.29766-0.16537 0.69453v0.38241q0 0.24598 0.0682 0.45889 0.0703 0.21291 0.15917 0.339 0.0496 0.07028 0.13229 0.12196 0.11782 0.07441 0.26665 0.07441 0.28939 0 0.45475-0.29766 0.16537-0.29972 0.16537-0.6966z" stroke-width=".4617"/>
      <path d="m230.22 35.984v0.42995q0 0.56017-0.26665 0.88677-0.20877 0.25632-0.5271 0.25632-0.15296 0-0.28939-0.06201-0.13436-0.05994-0.22944-0.1695-0.06-0.06821-0.13229-0.21911-0.0703-0.1509-0.10129-0.27699-0.0475-0.17777-0.0475-0.41548v-0.42995q0-0.56224 0.26665-0.88883 0.20877-0.25632 0.5271-0.25632 0.15503 0 0.28939 0.06201 0.13436 0.05994 0.22944 0.1695 0.062 0.07028 0.13229 0.22118 0.0703 0.1509 0.10335 0.27492 0.0455 0.17777 0.0455 0.41755zm-0.17363 0.02274q0-0.24598-0.0703-0.45682-0.0682-0.21291-0.15503-0.339-0.0517-0.07235-0.13436-0.12402-0.11782-0.07235-0.26458-0.07235-0.29146 0-0.45682 0.29766-0.16537 0.29766-0.16537 0.69453v0.38241q0 0.24598 0.0682 0.45889 0.0703 0.21291 0.15917 0.339 0.0496 0.07028 0.13229 0.12196 0.11782 0.07441 0.26665 0.07441 0.28939 0 0.45475-0.29766 0.16537-0.29972 0.16537-0.6966z" stroke-width=".36936"/>
     </g>
     <g aria-label="0101011">
      <path d="m221.89 31.42v2.4557h0.59531q0.062 0 0.0889 0.02481 0.0269 0.02274 0.0269 0.06201 0 0.03721-0.0269 0.06201-0.0269 0.02481-0.0889 0.02481h-1.3643q-0.062 0-0.0889-0.02481-0.0269-0.0248-0.0269-0.06201 0-0.03927 0.0269-0.06201 0.0269-0.02481 0.0889-0.02481h0.59532v-2.2159l-0.56638 0.17777q-0.0413 0.0124-0.0599 0.0124-0.031 0-0.0579-0.0248-0.0248-0.02687-0.0248-0.06201 0-0.03101 0.0207-0.05788 0.0165-0.01654 0.0682-0.03514z" stroke-width=".23085"/>
      <path d="m225.14 32.538v0.42995q0 0.56017-0.26665 0.88677-0.20878 0.25632-0.5271 0.25632-0.15296 0-0.28939-0.06201-0.13436-0.05994-0.22944-0.1695-0.0599-0.06821-0.1323-0.21911-0.0703-0.1509-0.10128-0.27698-0.0475-0.17777-0.0475-0.41548v-0.42995q0-0.56224 0.26665-0.88883 0.20877-0.25631 0.5271-0.25631 0.15503 0 0.28938 0.06201 0.13436 0.05994 0.22945 0.1695 0.062 0.07028 0.13229 0.22118 0.0703 0.1509 0.10335 0.27492 0.0455 0.17777 0.0455 0.41754zm-0.17364 0.02274q0-0.24598-0.0703-0.45682-0.0682-0.21291-0.15502-0.339-0.0517-0.07235-0.13436-0.12402-0.11783-0.07235-0.26459-0.07235-0.29145 0-0.45682 0.29766-0.16536 0.29766-0.16536 0.69453v0.3824q0 0.24598 0.0682 0.45889 0.0703 0.21291 0.15917 0.339 0.0496 0.07028 0.13229 0.12196 0.11782 0.07441 0.26665 0.07441 0.28939 0 0.45475-0.29766 0.16536-0.29972 0.16536-0.6966z" stroke-width=".36936"/>
      <path d="m226.97 31.42v2.4557h0.59531q0.062 0 0.0889 0.02481 0.0269 0.02274 0.0269 0.06201 0 0.03721-0.0269 0.06201-0.0269 0.02481-0.0889 0.02481h-1.3642q-0.062 0-0.0889-0.02481-0.0269-0.0248-0.0269-0.06201 0-0.03927 0.0269-0.06201 0.0269-0.02481 0.0889-0.02481h0.59531v-2.2159l-0.56637 0.17777q-0.0413 0.0124-0.06 0.0124-0.031 0-0.0579-0.0248-0.0248-0.02687-0.0248-0.06201 0-0.03101 0.0207-0.05788 0.0165-0.01654 0.0682-0.03514z" stroke-width=".4617"/>
      <path d="m230.22 32.538v0.42995q0 0.56017-0.26665 0.88677-0.20877 0.25632-0.5271 0.25632-0.15296 0-0.28939-0.06201-0.13436-0.05994-0.22944-0.1695-0.06-0.06821-0.13229-0.21911-0.0703-0.1509-0.10129-0.27698-0.0475-0.17777-0.0475-0.41548v-0.42995q0-0.56224 0.26665-0.88883 0.20877-0.25631 0.5271-0.25631 0.15503 0 0.28939 0.06201 0.13436 0.05994 0.22944 0.1695 0.062 0.07028 0.13229 0.22118 0.0703 0.1509 0.10335 0.27492 0.0455 0.17777 0.0455 0.41754zm-0.17363 0.02274q0-0.24598-0.0703-0.45682-0.0682-0.21291-0.15503-0.339-0.0517-0.07235-0.13436-0.12402-0.11782-0.07235-0.26458-0.07235-0.29146 0-0.45682 0.29766-0.16537 0.29766-0.16537 0.69453v0.3824q0 0.24598 0.0682 0.45889 0.0703 0.21291 0.15917 0.339 0.0496 0.07028 0.13229 0.12196 0.11782 0.07441 0.26665 0.07441 0.28939 0 0.45475-0.29766 0.16537-0.29972 0.16537-0.6966z" stroke-width=".36936"/>
      <path d="m232.05 31.42v2.4557h0.59532q0.062 0 0.0889 0.02481 0.0269 0.02274 0.0269 0.06201 0 0.03721-0.0269 0.06201-0.0269 0.02481-0.0889 0.02481h-1.3643q-0.062 0-0.0889-0.02481-0.0269-0.0248-0.0269-0.06201 0-0.03927 0.0269-0.06201 0.0269-0.02481 0.0889-0.02481h0.59531v-2.2159l-0.56637 0.17777q-0.0413 0.0124-0.0599 0.0124-0.031 0-0.0579-0.0248-0.0248-0.02687-0.0248-0.06201 0-0.03101 0.0207-0.05788 0.0165-0.01654 0.0682-0.03514z" stroke-width=".23085"/>
     </g>
     <g aria-label="0011100">
      <path d="m222.6 29.092v0.42995q0 0.56017-0.26665 0.88677-0.20878 0.25632-0.5271 0.25632-0.15297 0-0.28939-0.06201-0.13436-0.05995-0.22944-0.1695-0.06-0.06821-0.1323-0.21911-0.0703-0.1509-0.10128-0.27698-0.0475-0.17777-0.0475-0.41548v-0.42995q0-0.56224 0.26665-0.88883 0.20877-0.25631 0.52709-0.25631 0.15503 0 0.28939 0.06201 0.13436 0.05994 0.22945 0.1695 0.062 0.07028 0.13229 0.22118 0.0703 0.1509 0.10335 0.27492 0.0455 0.17777 0.0455 0.41754zm-0.17364 0.02274q0-0.24598-0.0703-0.45682-0.0682-0.21291-0.15503-0.339-0.0517-0.07235-0.13435-0.12402-0.11783-0.07235-0.26459-0.07235-0.29145 0-0.45682 0.29766-0.16536 0.29766-0.16536 0.69453v0.3824q0 0.24598 0.0682 0.45889 0.0703 0.21291 0.15916 0.339 0.0496 0.07028 0.1323 0.12196 0.11782 0.07441 0.26665 0.07441 0.28938 0 0.45475-0.29766 0.16536-0.29972 0.16536-0.6966z" stroke-width=".23085"/>
      <path d="m224.43 27.974v2.4557h0.59531q0.062 0 0.0889 0.02481 0.0269 0.02274 0.0269 0.06201 0 0.03721-0.0269 0.06201-0.0269 0.02481-0.0889 0.02481h-1.3643q-0.062 0-0.0889-0.02481-0.0269-0.0248-0.0269-0.06201 0-0.03927 0.0269-0.06201 0.0269-0.02481 0.0889-0.02481h0.59532v-2.2159l-0.56638 0.17777q-0.0413 0.0124-0.0599 0.0124-0.031 0-0.0579-0.02481-0.0248-0.02687-0.0248-0.06201 0-0.03101 0.0207-0.05788 0.0165-0.01654 0.0682-0.03514z" stroke-width=".36936"/>
      <path d="m226.97 27.974v2.4557h0.59531q0.062 0 0.0889 0.02481 0.0269 0.02274 0.0269 0.06201 0 0.03721-0.0269 0.06201-0.0269 0.02481-0.0889 0.02481h-1.3642q-0.062 0-0.0889-0.02481-0.0269-0.0248-0.0269-0.06201 0-0.03927 0.0269-0.06201 0.0269-0.02481 0.0889-0.02481h0.59531v-2.2159l-0.56637 0.17777q-0.0413 0.0124-0.06 0.0124-0.031 0-0.0579-0.02481-0.0248-0.02687-0.0248-0.06201 0-0.03101 0.0207-0.05788 0.0165-0.01654 0.0682-0.03514z" stroke-width=".4617"/>
      <path d="m229.51 27.974v2.4557h0.59531q0.062 0 0.0889 0.02481 0.0269 0.02274 0.0269 0.06201 0 0.03721-0.0269 0.06201-0.0269 0.02481-0.0889 0.02481h-1.3642q-0.062 0-0.0889-0.02481-0.0269-0.0248-0.0269-0.06201 0-0.03927 0.0269-0.06201 0.0269-0.02481 0.0889-0.02481h0.59531v-2.2159l-0.56637 0.17777q-0.0413 0.0124-0.0599 0.0124-0.031 0-0.0579-0.02481-0.0248-0.02687-0.0248-0.06201 0-0.03101 0.0207-0.05788 0.0165-0.01654 0.0682-0.03514z" stroke-width=".36936"/>
      <path d="m232.76 29.092v0.42995q0 0.56017-0.26665 0.88677-0.20877 0.25632-0.5271 0.25632-0.15296 0-0.28939-0.06201-0.13436-0.05995-0.22944-0.1695-0.0599-0.06821-0.13229-0.21911-0.0703-0.1509-0.10129-0.27698-0.0475-0.17777-0.0475-0.41548v-0.42995q0-0.56224 0.26665-0.88883 0.20877-0.25631 0.5271-0.25631 0.15503 0 0.28939 0.06201 0.13436 0.05994 0.22944 0.1695 0.062 0.07028 0.13229 0.22118 0.0703 0.1509 0.10335 0.27492 0.0455 0.17777 0.0455 0.41754zm-0.17363 0.02274q0-0.24598-0.0703-0.45682-0.0682-0.21291-0.15503-0.339-0.0517-0.07235-0.13436-0.12402-0.11782-0.07235-0.26458-0.07235-0.29146 0-0.45682 0.29766-0.16537 0.29766-0.16537 0.69453v0.3824q0 0.24598 0.0682 0.45889 0.0703 0.21291 0.15916 0.339 0.0496 0.07028 0.13229 0.12196 0.11782 0.07441 0.26665 0.07441 0.28939 0 0.45475-0.29766 0.16537-0.29972 0.16537-0.6966z" stroke-width=".23085"/>
     </g>
     <g aria-label="1001001">
      <path d="m225.14 25.7c9e-3 0.45044-0.0117 0.94099-0.26665 1.2637-0.13919 0.17088-0.31489 0.25632-0.5271 0.25632-0.10197 0-0.19844-0.02067-0.28939-0.06201-0.0896-0.03997-0.16605-0.09647-0.22944-0.1695-0.0399-0.04547-0.084-0.11851-0.1323-0.21911-0.0469-0.1006-0.0806-0.19292-0.10128-0.27698-0.0317-0.11851-0.0475-0.257-0.0475-0.41548 0.61745-1.2918 1.1409-0.75313 1.1774-0.15096zm-1.4201 0.35211c0 0.16399 0.0227 0.31695 0.0682 0.45889 0.0469 0.14194 0.0999 0.25494 0.15917 0.339 0.0331 0.04685 0.0772 0.08751 0.13229 0.12196 0.0786 0.04961 0.16743 0.07441 0.26665 0.07441 0.19293 0 0.34451-0.09922 0.45475-0.29766 0.11024-0.19982 0.16536-0.43202 0.16536-0.6966-0.12522-1.1307-1.231-1.4012-1.2464 4e-6z" stroke-width=".36936"/>
      <path d="m226.97 24.66-1e-5 2.3234h0.59531c0.0413 0 0.071 0.0083 0.0889 0.02481 0.0179 0.01516 0.0269 0.03583 0.0269 0.06201 0 0.02481-9e-3 0.04548-0.0269 0.06201-0.0179 0.01654-0.0476 0.02481-0.0889 0.02481h-1.3642c-0.0413 0-0.071-0.0083-0.0889-0.02481-0.0179-0.01654-0.0269-0.03721-0.0269-0.06201 0-0.02618 9e-3 -0.04685 0.0269-0.06201 0.0179-0.01654 0.0476-0.02481 0.0889-0.02481h0.59531v-2.2159l-0.56637 0.17777c-0.0275 0.0083-0.0475 0.0124-0.06 0.0124-0.0207 0-0.04-0.0083-0.0579-0.0248-0.0165-0.01791-0.0248-0.03858-0.0248-0.06201 0-0.02067 7e-3 -0.03997 0.0207-0.05788 0.011-0.01103 0.0337-0.02274 0.0682-0.03514z" stroke-width=".4617"/>
      <path d="m230.22 25.646v0.42995c0 0.37345-0.0889 0.66904-0.26665 0.88677-0.13918 0.17088-0.31488 0.25632-0.5271 0.25632-0.10197 0-0.19844-0.02067-0.28939-0.06201-0.0896-0.03997-0.16605-0.09647-0.22944-0.1695-0.04-0.04547-0.0841-0.11851-0.13229-0.21911-0.0469-0.1006-0.0806-0.19292-0.10129-0.27698-0.0317-0.11851-0.0475-0.257-0.0475-0.41548v-0.42995c0-0.37483 0.0889-0.14194 0.26665-0.35967 0.83871-0.1311 1.0649-0.0026 1.1782 0.19637 0.0469 0.1006 0.0813 0.19224 0.10335 0.27492 0.0303 0.11851 0.0455-0.27147 0.0455-0.11162zm-0.17363 0.02274c0-0.16399-0.0234 0.21291-0.0703 0.07235-0.0455-0.14194-0.0971-0.25494-0.15503-0.339-0.0345-0.04823-0.0792 0.43959-0.13436 0.40514-0.0786-0.04823-0.16674-0.60152-0.26458-0.60152-0.19431 0-0.34658 0.09922-0.45682 0.29766-0.11025 0.19844-0.16537-0.09922-0.16537 0.16536v0.3824c0 0.16399 0.0227 0.31695 0.0682 0.45889 0.0469 0.14194 0.0999 0.25494 0.15917 0.339 0.0331 0.04685 0.0772 0.08751 0.13229 0.12196 0.0786 0.04961 0.16743 0.07441 0.26665 0.07441 0.19293 0 0.34451-0.09922 0.45475-0.29766 0.11025-0.19982 0.16537-0.43202 0.16537-0.6966z" stroke-width=".36936"/>
     </g>
    </g>
    <circle transform="rotate(-40)" cx="153.25" cy="170.01" r="6.6146" fill="none" stroke-linecap="round" stroke-linejoin="round" stroke-width="1.3851"/>
    <rect transform="rotate(-40)" x="152.27" y="176.68" width="1.9475" height="5.9163" fill="#fff" stroke-linecap="round" stroke-linejoin="round" stroke-width=".75685"/>
   </g>
  </g>
  <g transform="matrix(-1.0312 .1609 .027748 -.97407 21.734 25.611)">
   <rect x=".374" y="7.748" width="12.964" height="12.964" rx="3.8486" ry="3.7984" fill="#a08" stroke="#a08" stroke-linecap="round" stroke-width=".24666" paint-order="markers stroke fill"/>
   <rect x="-.552" y="6.875" width="12.964" height="12.964" rx="3.8486" ry="3.7984" fill="#d65db1" stroke="#d65db1" stroke-linecap="round" stroke-width=".24666" paint-order="markers stroke fill"/>
   <g transform="matrix(.91864 .039889 .0069427 1.0889 -27.517 3.7749)">
    <path d="m39.4 5.418-2.274 5.248 2.39-1.412-2.258-1.836 2.142-2-2.6-1.135 2.732 4.987m-3.552-5.065-2.362 1.693 1.69 1.611-1.756 1.854 2.078 1.353m-2.07-1.576 2.45-4.914m-2.392 1.704 2.054 4.753" fill="none" stroke="#fff" stroke-width=".24587"/>
    <path d="m36.304 2.406a1.004 1.154 0 0 0-1.004 1.154 1.004 1.154 0 0 0 1.004 1.155 1.004 1.154 0 0 0 1.004-1.155 1.004 1.154 0 0 0-1.004-1.154zm-3.682 2.309a1.004 1.154 0 0 0-1.004 1.154 1.004 1.154 0 0 0 1.004 1.154 1.004 1.154 0 0 0 1.004-1.154 1.004 1.154 0 0 0-1.004-1.154zm7.782 0a1.004 1.154 0 0 0-1.004 1.154 1.004 1.154 0 0 0 1.004 1.154 1.004 1.154 0 0 0 1.004-1.154 1.004 1.154 0 0 0-1.004-1.154zm-4.1 1.539a1.004 1.154 0 0 0-1.004 1.154 1.004 1.154 0 0 0 1.004 1.155 1.004 1.154 0 0 0 1.004-1.155 1.004 1.154 0 0 0-1.004-1.154zm-3.682 1.731a1.004 1.154 0 0 0-1.004 1.155 1.004 1.154 0 0 0 1.004 1.154 1.004 1.154 0 0 0 1.004-1.154 1.004 1.154 0 0 0-1.004-1.155zm7.782 0a1.004 1.172 0 0 0-1.004 1.172 1.004 1.172 0 0 0 1.004 1.171 1.004 1.172 0 0 0 1.004-1.171 1.004 1.172 0 0 0-1.004-1.172zm-4.1 2.117a1.004 1.154 0 0 0-1.004 1.154 1.004 1.154 0 0 0 1.004 1.155 1.004 1.154 0 0 0 1.004-1.155 1.004 1.154 0 0 0-1.004-1.154z" fill="#fff" stroke-width="1.3385"/>
   </g>
  </g>
 </g>
</svg>
